{
    "asset" : {
        "generator" : "Khronos glTF Blender I/O v1.6.16",
        "version" : "2.0"
    },
    "scene" : 0,
    "scenes" : [
        {
            "name" : "Scene",
            "nodes" : [
                0
            ]
        }
    ],
    "nodes" : [
        {
            "mesh" : 0,
            "name" : "Icosphere.001"
        }
    ],
    "meshes" : [
        {
            "name" : "Icosphere.002",
            "primitives" : [
                {
                    "attributes" : {
                        "POSITION" : 0,
                        "NORMAL" : 1,
                        "TANGENT" : 2,
                        "TEXCOORD_0" : 3
                    },
                    "indices" : 4
                }
            ]
        }
    ],
    "accessors" : [
        {
            "bufferView" : 0,
            "componentType" : 5126,
            "count" : 41574,
            "max" : [
                1.4678081274032593,
                1.477116584777832,
                1.4691696166992188
            ],
            "min" : [
                -1.467810034751892,
                -1.477116584777832,
                -1.4691680669784546
            ],
            "type" : "VEC3"
        },
        {
            "bufferView" : 1,
            "componentType" : 5126,
            "count" : 41574,
            "type" : "VEC3"
        },
        {
            "bufferView" : 2,
            "componentType" : 5126,
            "count" : 41574,
            "type" : "VEC4"
        },
        {
            "bufferView" : 3,
            "componentType" : 5126,
            "count" : 41574,
            "type" : "VEC2"
        },
        {
            "bufferView" : 4,
            "componentType" : 5123,
            "count" : 50376,
            "type" : "SCALAR"
        }
    ],
    "bufferViews" : [
        {
            "buffer" : 0,
            "byteLength" : 498888,
            "byteOffset" : 0
        },
        {
            "buffer" : 0,
            "byteLength" : 498888,
            "byteOffset" : 498888
        },
        {
            "buffer" : 0,
            "byteLength" : 665184,
            "byteOffset" : 997776
        },
        {
            "buffer" : 0,
            "byteLength" : 332592,
            "byteOffset" : 1662960
        },
        {
            "buffer" : 0,
            "byteLength" : 100752,
            "byteOffset" : 1995552
        }
    ],
    "buffers" : [
        {
            "byteLength" : 2096304,
            "uri" : "testmodel.bin"
        }
    ]
}
