{
    "asset" : {
        "generator" : "Khronos glTF Blender I/O v3.2.40",
        "version" : "2.0"
    },
    "scene" : 0,
    "scenes" : [
        {
            "name" : "Scene",
            "nodes" : [
                0,
                1,
                2,
                3,
                4,
                5
            ]
        }
    ],
    "nodes" : [
        {
            "mesh" : 0,
            "name" : "Plane.001"
        },
        {
            "mesh" : 1,
            "name" : "Icosphere.005",
            "rotation" : [
                -0.1365894079208374,
                0.7882562279701233,
                -0.1292259842157364,
                0.5859147906303406
            ],
            "scale" : [
                1.0657949447631836,
                1.0657949447631836,
                1.065794825553894
            ],
            "translation" : [
                0.27872610092163086,
                3.5342519283294678,
                -1.2491610050201416
            ]
        },
        {
            "mesh" : 2,
            "name" : "Icosphere.006",
            "rotation" : [
                0.11548379808664322,
                0.29610928893089294,
                -0.5701329112052917,
                0.7575825452804565
            ],
            "scale" : [
                1.2251158952713013,
                1.2251158952713013,
                1.2251158952713013
            ],
            "translation" : [
                0.06401948630809784,
                5.514620304107666,
                -0.8450011610984802
            ]
        },
        {
            "mesh" : 3,
            "name" : "Icosphere.007",
            "rotation" : [
                0.002675300696864724,
                -0.4109335243701935,
                0.28167611360549927,
                0.8670554757118225
            ],
            "scale" : [
                1.014870524406433,
                1.0148706436157227,
                1.014870524406433
            ],
            "translation" : [
                -0.6646652221679688,
                4.659408092498779,
                0.6009120941162109
            ]
        },
        {
            "mesh" : 4,
            "name" : "Icosphere.008",
            "scale" : [
                1.0111548900604248,
                1.0111548900604248,
                1.0111548900604248
            ],
            "translation" : [
                -1.5987482070922852,
                2.8896517753601074,
                -0.09425120055675507
            ]
        },
        {
            "mesh" : 5,
            "name" : "Icosphere.009",
            "scale" : [
                1.2960929870605469,
                1.2960929870605469,
                1.2960929870605469
            ],
            "translation" : [
                0.9759488105773926,
                2.807809829711914,
                0.8949911594390869
            ]
        }
    ],
    "materials" : [
        {
            "doubleSided" : true,
            "name" : "Material.001",
            "pbrMetallicRoughness" : {
                "baseColorFactor" : [
                    0.10000000149011612,
                    0.05000000074505806,
                    0.009999999776482582,
                    1
                ],
                "metallicFactor" : 0,
                "roughnessFactor" : 0.5
            }
        },
        {
            "doubleSided" : true,
            "name" : "Material",
            "pbrMetallicRoughness" : {
                "baseColorFactor" : [
                    0.800000011920929,
                    0.800000011920929,
                    0.800000011920929,
                    1
                ],
                "metallicFactor" : 0,
                "roughnessFactor" : 0.4000000059604645
            }
        }
    ],
    "meshes" : [
        {
            "name" : "Plane.001",
            "primitives" : [
                {
                    "attributes" : {
                        "POSITION" : 0,
                        "NORMAL" : 1,
                        "TANGENT" : 2,
                        "TEXCOORD_0" : 3
                    },
                    "indices" : 4,
                    "material" : 0
                }
            ]
        },
        {
            "name" : "Icosphere.005",
            "primitives" : [
                {
                    "attributes" : {
                        "POSITION" : 5,
                        "NORMAL" : 6,
                        "TANGENT" : 7,
                        "TEXCOORD_0" : 8
                    },
                    "indices" : 9,
                    "material" : 1
                }
            ]
        },
        {
            "name" : "Icosphere.006",
            "primitives" : [
                {
                    "attributes" : {
                        "POSITION" : 10,
                        "NORMAL" : 11,
                        "TANGENT" : 12,
                        "TEXCOORD_0" : 13
                    },
                    "indices" : 9,
                    "material" : 1
                }
            ]
        },
        {
            "name" : "Icosphere.007",
            "primitives" : [
                {
                    "attributes" : {
                        "POSITION" : 14,
                        "NORMAL" : 15,
                        "TANGENT" : 16,
                        "TEXCOORD_0" : 17
                    },
                    "indices" : 9,
                    "material" : 1
                }
            ]
        },
        {
            "name" : "Icosphere.008",
            "primitives" : [
                {
                    "attributes" : {
                        "POSITION" : 18,
                        "NORMAL" : 19,
                        "TANGENT" : 20,
                        "TEXCOORD_0" : 21
                    },
                    "indices" : 9,
                    "material" : 1
                }
            ]
        },
        {
            "name" : "Icosphere.009",
            "primitives" : [
                {
                    "attributes" : {
                        "POSITION" : 22,
                        "NORMAL" : 23,
                        "TANGENT" : 24,
                        "TEXCOORD_0" : 25
                    },
                    "indices" : 9,
                    "material" : 1
                }
            ]
        }
    ],
    "accessors" : [
        {
            "bufferView" : 0,
            "componentType" : 5126,
            "count" : 414,
            "max" : [
                1.1869796514511108,
                4.8114848136901855,
                0.6839109659194946
            ],
            "min" : [
                -1.1603171825408936,
                -0.5334116816520691,
                -1.2709301710128784
            ],
            "type" : "VEC3"
        },
        {
            "bufferView" : 1,
            "componentType" : 5126,
            "count" : 414,
            "type" : "VEC3"
        },
        {
            "bufferView" : 2,
            "componentType" : 5126,
            "count" : 414,
            "type" : "VEC4"
        },
        {
            "bufferView" : 3,
            "componentType" : 5126,
            "count" : 414,
            "type" : "VEC2"
        },
        {
            "bufferView" : 4,
            "componentType" : 5123,
            "count" : 414,
            "type" : "SCALAR"
        },
        {
            "bufferView" : 5,
            "componentType" : 5126,
            "count" : 42,
            "max" : [
                1.028422474861145,
                1.123654842376709,
                1.1242148876190186
            ],
            "min" : [
                -1.005028486251831,
                -0.9883843064308167,
                -0.938087522983551
            ],
            "type" : "VEC3"
        },
        {
            "bufferView" : 6,
            "componentType" : 5126,
            "count" : 42,
            "type" : "VEC3"
        },
        {
            "bufferView" : 7,
            "componentType" : 5126,
            "count" : 42,
            "type" : "VEC4"
        },
        {
            "bufferView" : 8,
            "componentType" : 5126,
            "count" : 42,
            "type" : "VEC2"
        },
        {
            "bufferView" : 9,
            "componentType" : 5123,
            "count" : 42,
            "type" : "SCALAR"
        },
        {
            "bufferView" : 10,
            "componentType" : 5126,
            "count" : 42,
            "max" : [
                1.028422474861145,
                1.123654842376709,
                1.1242148876190186
            ],
            "min" : [
                -1.005028486251831,
                -0.9883843064308167,
                -0.938087522983551
            ],
            "type" : "VEC3"
        },
        {
            "bufferView" : 11,
            "componentType" : 5126,
            "count" : 42,
            "type" : "VEC3"
        },
        {
            "bufferView" : 12,
            "componentType" : 5126,
            "count" : 42,
            "type" : "VEC4"
        },
        {
            "bufferView" : 13,
            "componentType" : 5126,
            "count" : 42,
            "type" : "VEC2"
        },
        {
            "bufferView" : 14,
            "componentType" : 5126,
            "count" : 42,
            "max" : [
                1.028422474861145,
                1.123654842376709,
                1.1242148876190186
            ],
            "min" : [
                -1.005028486251831,
                -0.9883843064308167,
                -0.938087522983551
            ],
            "type" : "VEC3"
        },
        {
            "bufferView" : 15,
            "componentType" : 5126,
            "count" : 42,
            "type" : "VEC3"
        },
        {
            "bufferView" : 16,
            "componentType" : 5126,
            "count" : 42,
            "type" : "VEC4"
        },
        {
            "bufferView" : 17,
            "componentType" : 5126,
            "count" : 42,
            "type" : "VEC2"
        },
        {
            "bufferView" : 18,
            "componentType" : 5126,
            "count" : 42,
            "max" : [
                1.028422474861145,
                1.123654842376709,
                1.1242148876190186
            ],
            "min" : [
                -1.005028486251831,
                -0.9883843064308167,
                -0.938087522983551
            ],
            "type" : "VEC3"
        },
        {
            "bufferView" : 19,
            "componentType" : 5126,
            "count" : 42,
            "type" : "VEC3"
        },
        {
            "bufferView" : 20,
            "componentType" : 5126,
            "count" : 42,
            "type" : "VEC4"
        },
        {
            "bufferView" : 21,
            "componentType" : 5126,
            "count" : 42,
            "type" : "VEC2"
        },
        {
            "bufferView" : 22,
            "componentType" : 5126,
            "count" : 42,
            "max" : [
                1.028422474861145,
                1.123654842376709,
                1.1242148876190186
            ],
            "min" : [
                -1.005028486251831,
                -0.9883843064308167,
                -0.938087522983551
            ],
            "type" : "VEC3"
        },
        {
            "bufferView" : 23,
            "componentType" : 5126,
            "count" : 42,
            "type" : "VEC3"
        },
        {
            "bufferView" : 24,
            "componentType" : 5126,
            "count" : 42,
            "type" : "VEC4"
        },
        {
            "bufferView" : 25,
            "componentType" : 5126,
            "count" : 42,
            "type" : "VEC2"
        }
    ],
    "bufferViews" : [
        {
            "buffer" : 0,
            "byteLength" : 4968,
            "byteOffset" : 0
        },
        {
            "buffer" : 0,
            "byteLength" : 4968,
            "byteOffset" : 4968
        },
        {
            "buffer" : 0,
            "byteLength" : 6624,
            "byteOffset" : 9936
        },
        {
            "buffer" : 0,
            "byteLength" : 3312,
            "byteOffset" : 16560
        },
        {
            "buffer" : 0,
            "byteLength" : 828,
            "byteOffset" : 19872
        },
        {
            "buffer" : 0,
            "byteLength" : 504,
            "byteOffset" : 20700
        },
        {
            "buffer" : 0,
            "byteLength" : 504,
            "byteOffset" : 21204
        },
        {
            "buffer" : 0,
            "byteLength" : 672,
            "byteOffset" : 21708
        },
        {
            "buffer" : 0,
            "byteLength" : 336,
            "byteOffset" : 22380
        },
        {
            "buffer" : 0,
            "byteLength" : 84,
            "byteOffset" : 22716
        },
        {
            "buffer" : 0,
            "byteLength" : 504,
            "byteOffset" : 22800
        },
        {
            "buffer" : 0,
            "byteLength" : 504,
            "byteOffset" : 23304
        },
        {
            "buffer" : 0,
            "byteLength" : 672,
            "byteOffset" : 23808
        },
        {
            "buffer" : 0,
            "byteLength" : 336,
            "byteOffset" : 24480
        },
        {
            "buffer" : 0,
            "byteLength" : 504,
            "byteOffset" : 24816
        },
        {
            "buffer" : 0,
            "byteLength" : 504,
            "byteOffset" : 25320
        },
        {
            "buffer" : 0,
            "byteLength" : 672,
            "byteOffset" : 25824
        },
        {
            "buffer" : 0,
            "byteLength" : 336,
            "byteOffset" : 26496
        },
        {
            "buffer" : 0,
            "byteLength" : 504,
            "byteOffset" : 26832
        },
        {
            "buffer" : 0,
            "byteLength" : 504,
            "byteOffset" : 27336
        },
        {
            "buffer" : 0,
            "byteLength" : 672,
            "byteOffset" : 27840
        },
        {
            "buffer" : 0,
            "byteLength" : 336,
            "byteOffset" : 28512
        },
        {
            "buffer" : 0,
            "byteLength" : 504,
            "byteOffset" : 28848
        },
        {
            "buffer" : 0,
            "byteLength" : 504,
            "byteOffset" : 29352
        },
        {
            "buffer" : 0,
            "byteLength" : 672,
            "byteOffset" : 29856
        },
        {
            "buffer" : 0,
            "byteLength" : 336,
            "byteOffset" : 30528
        }
    ],
    "buffers" : [
        {
            "byteLength" : 30864,
            "uri" : "Tree1.bin"
        }
    ]
}
