{
    "asset" : {
        "generator" : "Khronos glTF Blender I/O v3.2.40",
        "version" : "2.0"
    },
    "scene" : 0,
    "scenes" : [
        {
            "name" : "Scene",
            "nodes" : [
                0,
                1,
                2,
                3,
                4,
                5
            ]
        }
    ],
    "nodes" : [
        {
            "mesh" : 0,
            "name" : "Plane"
        },
        {
            "mesh" : 1,
            "name" : "Icosphere",
            "scale" : [
                1.2960929870605469,
                1.2960929870605469,
                1.2960929870605469
            ],
            "translation" : [
                0.9759488105773926,
                2.807809829711914,
                0.8949911594390869
            ]
        },
        {
            "mesh" : 2,
            "name" : "Icosphere.001",
            "scale" : [
                1.0111548900604248,
                1.0111548900604248,
                1.0111548900604248
            ],
            "translation" : [
                -1.5987482070922852,
                2.8896517753601074,
                -0.09425120055675507
            ]
        },
        {
            "mesh" : 3,
            "name" : "Icosphere.002",
            "scale" : [
                1.0148706436157227,
                1.0148706436157227,
                1.0148706436157227
            ],
            "translation" : [
                -0.6646652221679688,
                4.659408092498779,
                0.6009120941162109
            ]
        },
        {
            "mesh" : 4,
            "name" : "Icosphere.003",
            "scale" : [
                1.2251158952713013,
                1.2251158952713013,
                1.2251158952713013
            ],
            "translation" : [
                0.06401948630809784,
                5.514620304107666,
                -0.8450011610984802
            ]
        },
        {
            "mesh" : 5,
            "name" : "Icosphere.004",
            "scale" : [
                1.0657949447631836,
                1.0657949447631836,
                1.0657949447631836
            ],
            "translation" : [
                0.27872610092163086,
                3.5342519283294678,
                -1.2491610050201416
            ]
        }
    ],
    "materials" : [
        {
            "doubleSided" : true,
            "name" : "Material.001",
            "pbrMetallicRoughness" : {
                "baseColorFactor" : [
                    0.800000011920929,
                    0.800000011920929,
                    0.800000011920929,
                    1
                ],
                "metallicFactor" : 0,
                "roughnessFactor" : 0.5
            }
        },
        {
            "doubleSided" : true,
            "name" : "Material",
            "pbrMetallicRoughness" : {
                "baseColorFactor" : [
                    0.800000011920929,
                    0.800000011920929,
                    0.800000011920929,
                    1
                ],
                "metallicFactor" : 0,
                "roughnessFactor" : 0.4000000059604645
            }
        }
    ],
    "meshes" : [
        {
            "name" : "Plane",
            "primitives" : [
                {
                    "attributes" : {
                        "POSITION" : 0,
                        "NORMAL" : 1,
                        "TANGENT" : 2,
                        "TEXCOORD_0" : 3
                    },
                    "indices" : 4,
                    "material" : 0
                }
            ]
        },
        {
            "name" : "Icosphere",
            "primitives" : [
                {
                    "attributes" : {
                        "POSITION" : 5,
                        "NORMAL" : 6,
                        "TANGENT" : 7,
                        "TEXCOORD_0" : 8
                    },
                    "indices" : 9,
                    "material" : 1
                }
            ]
        },
        {
            "name" : "Icosphere.001",
            "primitives" : [
                {
                    "attributes" : {
                        "POSITION" : 10,
                        "NORMAL" : 11,
                        "TANGENT" : 12,
                        "TEXCOORD_0" : 13
                    },
                    "indices" : 9,
                    "material" : 1
                }
            ]
        },
        {
            "name" : "Icosphere.002",
            "primitives" : [
                {
                    "attributes" : {
                        "POSITION" : 14,
                        "NORMAL" : 15,
                        "TANGENT" : 16,
                        "TEXCOORD_0" : 17
                    },
                    "indices" : 9,
                    "material" : 1
                }
            ]
        },
        {
            "name" : "Icosphere.003",
            "primitives" : [
                {
                    "attributes" : {
                        "POSITION" : 18,
                        "NORMAL" : 19,
                        "TANGENT" : 20,
                        "TEXCOORD_0" : 21
                    },
                    "indices" : 9,
                    "material" : 1
                }
            ]
        },
        {
            "name" : "Icosphere.004",
            "primitives" : [
                {
                    "attributes" : {
                        "POSITION" : 22,
                        "NORMAL" : 23,
                        "TANGENT" : 24,
                        "TEXCOORD_0" : 25
                    },
                    "indices" : 9,
                    "material" : 1
                }
            ]
        }
    ],
    "accessors" : [
        {
            "bufferView" : 0,
            "componentType" : 5126,
            "count" : 2840,
            "max" : [
                1.1065593957901,
                4.7724809646606445,
                0.6210594177246094
            ],
            "min" : [
                -1.118270993232727,
                -0.48886460065841675,
                -1.229841947555542
            ],
            "type" : "VEC3"
        },
        {
            "bufferView" : 1,
            "componentType" : 5126,
            "count" : 2840,
            "type" : "VEC3"
        },
        {
            "bufferView" : 2,
            "componentType" : 5126,
            "count" : 2840,
            "type" : "VEC4"
        },
        {
            "bufferView" : 3,
            "componentType" : 5126,
            "count" : 2840,
            "type" : "VEC2"
        },
        {
            "bufferView" : 4,
            "componentType" : 5123,
            "count" : 4260,
            "type" : "SCALAR"
        },
        {
            "bufferView" : 5,
            "componentType" : 5126,
            "count" : 240,
            "max" : [
                0.9510578513145447,
                1,
                0.9999999403953552
            ],
            "min" : [
                -0.9510578513145447,
                -1,
                -0.9999999403953552
            ],
            "type" : "VEC3"
        },
        {
            "bufferView" : 6,
            "componentType" : 5126,
            "count" : 240,
            "type" : "VEC3"
        },
        {
            "bufferView" : 7,
            "componentType" : 5126,
            "count" : 240,
            "type" : "VEC4"
        },
        {
            "bufferView" : 8,
            "componentType" : 5126,
            "count" : 240,
            "type" : "VEC2"
        },
        {
            "bufferView" : 9,
            "componentType" : 5123,
            "count" : 240,
            "type" : "SCALAR"
        },
        {
            "bufferView" : 10,
            "componentType" : 5126,
            "count" : 240,
            "max" : [
                0.9510578513145447,
                1,
                0.9999999403953552
            ],
            "min" : [
                -0.9510578513145447,
                -1,
                -0.9999999403953552
            ],
            "type" : "VEC3"
        },
        {
            "bufferView" : 11,
            "componentType" : 5126,
            "count" : 240,
            "type" : "VEC3"
        },
        {
            "bufferView" : 12,
            "componentType" : 5126,
            "count" : 240,
            "type" : "VEC4"
        },
        {
            "bufferView" : 13,
            "componentType" : 5126,
            "count" : 240,
            "type" : "VEC2"
        },
        {
            "bufferView" : 14,
            "componentType" : 5126,
            "count" : 240,
            "max" : [
                0.9510578513145447,
                1,
                0.9999999403953552
            ],
            "min" : [
                -0.9510578513145447,
                -1,
                -0.9999999403953552
            ],
            "type" : "VEC3"
        },
        {
            "bufferView" : 15,
            "componentType" : 5126,
            "count" : 240,
            "type" : "VEC3"
        },
        {
            "bufferView" : 16,
            "componentType" : 5126,
            "count" : 240,
            "type" : "VEC4"
        },
        {
            "bufferView" : 17,
            "componentType" : 5126,
            "count" : 240,
            "type" : "VEC2"
        },
        {
            "bufferView" : 18,
            "componentType" : 5126,
            "count" : 240,
            "max" : [
                0.9510578513145447,
                1,
                0.9999999403953552
            ],
            "min" : [
                -0.9510578513145447,
                -1,
                -0.9999999403953552
            ],
            "type" : "VEC3"
        },
        {
            "bufferView" : 19,
            "componentType" : 5126,
            "count" : 240,
            "type" : "VEC3"
        },
        {
            "bufferView" : 20,
            "componentType" : 5126,
            "count" : 240,
            "type" : "VEC4"
        },
        {
            "bufferView" : 21,
            "componentType" : 5126,
            "count" : 240,
            "type" : "VEC2"
        },
        {
            "bufferView" : 22,
            "componentType" : 5126,
            "count" : 240,
            "max" : [
                0.9510578513145447,
                1,
                0.9999999403953552
            ],
            "min" : [
                -0.9510578513145447,
                -1,
                -0.9999999403953552
            ],
            "type" : "VEC3"
        },
        {
            "bufferView" : 23,
            "componentType" : 5126,
            "count" : 240,
            "type" : "VEC3"
        },
        {
            "bufferView" : 24,
            "componentType" : 5126,
            "count" : 240,
            "type" : "VEC4"
        },
        {
            "bufferView" : 25,
            "componentType" : 5126,
            "count" : 240,
            "type" : "VEC2"
        }
    ],
    "bufferViews" : [
        {
            "buffer" : 0,
            "byteLength" : 34080,
            "byteOffset" : 0
        },
        {
            "buffer" : 0,
            "byteLength" : 34080,
            "byteOffset" : 34080
        },
        {
            "buffer" : 0,
            "byteLength" : 45440,
            "byteOffset" : 68160
        },
        {
            "buffer" : 0,
            "byteLength" : 22720,
            "byteOffset" : 113600
        },
        {
            "buffer" : 0,
            "byteLength" : 8520,
            "byteOffset" : 136320
        },
        {
            "buffer" : 0,
            "byteLength" : 2880,
            "byteOffset" : 144840
        },
        {
            "buffer" : 0,
            "byteLength" : 2880,
            "byteOffset" : 147720
        },
        {
            "buffer" : 0,
            "byteLength" : 3840,
            "byteOffset" : 150600
        },
        {
            "buffer" : 0,
            "byteLength" : 1920,
            "byteOffset" : 154440
        },
        {
            "buffer" : 0,
            "byteLength" : 480,
            "byteOffset" : 156360
        },
        {
            "buffer" : 0,
            "byteLength" : 2880,
            "byteOffset" : 156840
        },
        {
            "buffer" : 0,
            "byteLength" : 2880,
            "byteOffset" : 159720
        },
        {
            "buffer" : 0,
            "byteLength" : 3840,
            "byteOffset" : 162600
        },
        {
            "buffer" : 0,
            "byteLength" : 1920,
            "byteOffset" : 166440
        },
        {
            "buffer" : 0,
            "byteLength" : 2880,
            "byteOffset" : 168360
        },
        {
            "buffer" : 0,
            "byteLength" : 2880,
            "byteOffset" : 171240
        },
        {
            "buffer" : 0,
            "byteLength" : 3840,
            "byteOffset" : 174120
        },
        {
            "buffer" : 0,
            "byteLength" : 1920,
            "byteOffset" : 177960
        },
        {
            "buffer" : 0,
            "byteLength" : 2880,
            "byteOffset" : 179880
        },
        {
            "buffer" : 0,
            "byteLength" : 2880,
            "byteOffset" : 182760
        },
        {
            "buffer" : 0,
            "byteLength" : 3840,
            "byteOffset" : 185640
        },
        {
            "buffer" : 0,
            "byteLength" : 1920,
            "byteOffset" : 189480
        },
        {
            "buffer" : 0,
            "byteLength" : 2880,
            "byteOffset" : 191400
        },
        {
            "buffer" : 0,
            "byteLength" : 2880,
            "byteOffset" : 194280
        },
        {
            "buffer" : 0,
            "byteLength" : 3840,
            "byteOffset" : 197160
        },
        {
            "buffer" : 0,
            "byteLength" : 1920,
            "byteOffset" : 201000
        }
    ],
    "buffers" : [
        {
            "byteLength" : 202920,
            "uri" : "Tree.bin"
        }
    ]
}
